<svg id="visual" width='100%25' height='100%25' viewBox='0 0 900 450' xmlns="http://www.w3.org/2000/svg" xmlns:xlink="http://www.w3.org/1999/xlink" version="1.1"><path d="M449 600L407 600L407 574L722 574L722 548L537 548L537 522L827 522L827 496L655 496L655 470L658 470L658 443L633 443L633 417L457 417L457 391L470 391L470 365L867 365L867 339L378 339L378 313L478 313L478 287L551 287L551 261L827 261L827 235L686 235L686 209L602 209L602 183L883 183L883 157L459 157L459 130L550 130L550 104L629 104L629 78L381 78L381 52L431 52L431 26L596 26L596 0L900 0L900 26L900 26L900 52L900 52L900 78L900 78L900 104L900 104L900 130L900 130L900 157L900 157L900 183L900 183L900 209L900 209L900 235L900 235L900 261L900 261L900 287L900 287L900 313L900 313L900 339L900 339L900 365L900 365L900 391L900 391L900 417L900 417L900 443L900 443L900 470L900 470L900 496L900 496L900 522L900 522L900 548L900 548L900 574L900 574L900 600L900 600Z" fill="#ebe7e4"></path><path d="M511 600L727 600L727 574L525 574L525 548L669 548L669 522L492 522L492 496L696 496L696 470L508 470L508 443L610 443L610 417L485 417L485 391L567 391L567 365L756 365L756 339L816 339L816 313L642 313L642 287L534 287L534 261L624 261L624 235L848 235L848 209L855 209L855 183L836 183L836 157L741 157L741 130L484 130L484 104L861 104L861 78L849 78L849 52L488 52L488 26L594 26L594 0L900 0L900 26L900 26L900 52L900 52L900 78L900 78L900 104L900 104L900 130L900 130L900 157L900 157L900 183L900 183L900 209L900 209L900 235L900 235L900 261L900 261L900 287L900 287L900 313L900 313L900 339L900 339L900 365L900 365L900 391L900 391L900 417L900 417L900 443L900 443L900 470L900 470L900 496L900 496L900 522L900 522L900 548L900 548L900 574L900 574L900 600L900 600Z" fill="#f5c3a2"></path><path d="M776 600L799 600L799 574L653 574L653 548L669 548L669 522L591 522L591 496L825 496L825 470L589 470L589 443L720 443L720 417L662 417L662 391L618 391L618 365L606 365L606 339L720 339L720 313L870 313L870 287L678 287L678 261L896 261L896 235L627 235L627 209L661 209L661 183L743 183L743 157L843 157L843 130L608 130L608 104L683 104L683 78L589 78L589 52L839 52L839 26L584 26L584 0L900 0L900 26L900 26L900 52L900 52L900 78L900 78L900 104L900 104L900 130L900 130L900 157L900 157L900 183L900 183L900 209L900 209L900 235L900 235L900 261L900 261L900 287L900 287L900 313L900 313L900 339L900 339L900 365L900 365L900 391L900 391L900 417L900 417L900 443L900 443L900 470L900 470L900 496L900 496L900 522L900 522L900 548L900 548L900 574L900 574L900 600L900 600Z" fill="#fb9a6a"></path><path d="M751 600L707 600L707 574L712 574L712 548L745 548L745 522L798 522L798 496L752 496L752 470L857 470L857 443L724 443L724 417L868 417L868 391L874 391L874 365L817 365L817 339L788 339L788 313L838 313L838 287L865 287L865 261L745 261L745 235L786 235L786 209L706 209L706 183L851 183L851 157L868 157L868 130L783 130L783 104L817 104L817 78L829 78L829 52L815 52L815 26L840 26L840 0L900 0L900 26L900 26L900 52L900 52L900 78L900 78L900 104L900 104L900 130L900 130L900 157L900 157L900 183L900 183L900 209L900 209L900 235L900 235L900 261L900 261L900 287L900 287L900 313L900 313L900 339L900 339L900 365L900 365L900 391L900 391L900 417L900 417L900 443L900 443L900 470L900 470L900 496L900 496L900 522L900 522L900 548L900 548L900 574L900 574L900 600L900 600Z" fill="#ff6a3d"></path></svg>